<svg xmlns="http://www.w3.org/2000/svg" viewBox="0 0 512 512">
  <rect width="512" height="512" rx="112" fill="#FAF9F5"/>
  <circle cx="256" cy="256" r="178" fill="#ECC09B"/>
  <path fill="#1E3A45" d="M246 121c-49 0-89 38-89 85 0 21 8 41 23 56-18 13-30 34-30 58 0 40 33 72 74 72h64c41 0 74-32 74-72 0-24-12-45-30-58 15-15 23-35 23-56 0-47-40-85-89-85h-20Zm0 42h20c26 0 47 19 47 43 0 19-13 35-31 41l-26 9 26 9c22 7 38 28 38 55 0 17-14 30-32 30h-64c-18 0-32-13-32-30 0-27 16-48 38-55l26-9-26-9c-18-6-31-22-31-41 0-24 21-43 47-43Z"/>
  <path fill="#8DAA9D" d="M190 264c42 24 90 24 132 0 5 20 2 41-8 58-33 17-83 17-116 0-10-17-13-38-8-58Z"/>
</svg>
